<mxfile host="app.diagrams.net" agent="Mozilla/5.0 (Windows NT 10.0; Win64; x64) AppleWebKit/537.36 (KHTML, like Gecko) Chrome/127.0.0.0 Safari/537.36" version="24.7.6">
  <diagram id="AvJswLhhBdYxZJGW8vcj" name="Page-1">
    <mxGraphModel dx="1588" dy="892" grid="0" gridSize="10" guides="1" tooltips="1" connect="1" arrows="1" fold="1" page="1" pageScale="1" pageWidth="850" pageHeight="1100" math="0" shadow="0">
      <root>
        <mxCell id="0" />
        <mxCell id="1" parent="0" />
        <mxCell id="S0AGYew1W7Eg9Xt-4EEE-3" value="" style="edgeStyle=orthogonalEdgeStyle;rounded=0;orthogonalLoop=1;jettySize=auto;html=1;fillColor=none;" parent="1" source="S0AGYew1W7Eg9Xt-4EEE-1" target="S0AGYew1W7Eg9Xt-4EEE-2" edge="1">
          <mxGeometry relative="1" as="geometry" />
        </mxCell>
        <mxCell id="S0AGYew1W7Eg9Xt-4EEE-1" value="Start" style="strokeWidth=1;html=1;shape=mxgraph.flowchart.terminator;whiteSpace=wrap;fontStyle=0;fillColor=none;" parent="1" vertex="1">
          <mxGeometry x="400" y="120" width="80" height="40" as="geometry" />
        </mxCell>
        <mxCell id="S0AGYew1W7Eg9Xt-4EEE-5" value="" style="edgeStyle=orthogonalEdgeStyle;rounded=0;orthogonalLoop=1;jettySize=auto;html=1;fillColor=none;" parent="1" source="S0AGYew1W7Eg9Xt-4EEE-2" target="S0AGYew1W7Eg9Xt-4EEE-4" edge="1">
          <mxGeometry relative="1" as="geometry" />
        </mxCell>
        <mxCell id="S0AGYew1W7Eg9Xt-4EEE-2" value="DataFrame" style="shape=parallelogram;perimeter=parallelogramPerimeter;whiteSpace=wrap;html=1;fixedSize=1;fontStyle=2;fillColor=none;" parent="1" vertex="1">
          <mxGeometry x="270" y="120" width="100" height="40" as="geometry" />
        </mxCell>
        <mxCell id="S0AGYew1W7Eg9Xt-4EEE-8" value="" style="edgeStyle=orthogonalEdgeStyle;rounded=0;orthogonalLoop=1;jettySize=auto;html=1;fillColor=none;" parent="1" source="S0AGYew1W7Eg9Xt-4EEE-4" target="S0AGYew1W7Eg9Xt-4EEE-7" edge="1">
          <mxGeometry relative="1" as="geometry" />
        </mxCell>
        <mxCell id="S0AGYew1W7Eg9Xt-4EEE-4" value="i = 0&lt;div&gt;p = 0&lt;/div&gt;" style="rounded=0;whiteSpace=wrap;html=1;fillColor=none;" parent="1" vertex="1">
          <mxGeometry x="275" y="200" width="90" height="40" as="geometry" />
        </mxCell>
        <mxCell id="S0AGYew1W7Eg9Xt-4EEE-10" value="" style="edgeStyle=orthogonalEdgeStyle;rounded=0;orthogonalLoop=1;jettySize=auto;html=1;fillColor=none;" parent="1" source="S0AGYew1W7Eg9Xt-4EEE-7" target="S0AGYew1W7Eg9Xt-4EEE-9" edge="1">
          <mxGeometry relative="1" as="geometry" />
        </mxCell>
        <mxCell id="S0AGYew1W7Eg9Xt-4EEE-23" value="" style="edgeStyle=orthogonalEdgeStyle;rounded=0;orthogonalLoop=1;jettySize=auto;html=1;fillColor=none;" parent="1" source="S0AGYew1W7Eg9Xt-4EEE-7" target="S0AGYew1W7Eg9Xt-4EEE-21" edge="1">
          <mxGeometry relative="1" as="geometry" />
        </mxCell>
        <mxCell id="S0AGYew1W7Eg9Xt-4EEE-7" value="i &amp;lt; jumlah baris" style="rhombus;whiteSpace=wrap;html=1;fillColor=none;" parent="1" vertex="1">
          <mxGeometry x="280" y="280" width="80" height="80" as="geometry" />
        </mxCell>
        <mxCell id="S0AGYew1W7Eg9Xt-4EEE-12" value="" style="edgeStyle=orthogonalEdgeStyle;rounded=0;orthogonalLoop=1;jettySize=auto;html=1;fillColor=none;" parent="1" source="S0AGYew1W7Eg9Xt-4EEE-9" target="S0AGYew1W7Eg9Xt-4EEE-11" edge="1">
          <mxGeometry relative="1" as="geometry" />
        </mxCell>
        <mxCell id="S0AGYew1W7Eg9Xt-4EEE-27" style="edgeStyle=orthogonalEdgeStyle;rounded=0;orthogonalLoop=1;jettySize=auto;html=1;entryX=0;entryY=0.5;entryDx=0;entryDy=0;fillColor=none;" parent="1" source="S0AGYew1W7Eg9Xt-4EEE-9" target="S0AGYew1W7Eg9Xt-4EEE-17" edge="1">
          <mxGeometry relative="1" as="geometry" />
        </mxCell>
        <mxCell id="S0AGYew1W7Eg9Xt-4EEE-9" value="p &amp;lt; jumlah kolom" style="rhombus;whiteSpace=wrap;html=1;fillColor=none;" parent="1" vertex="1">
          <mxGeometry x="280" y="390" width="80" height="80" as="geometry" />
        </mxCell>
        <mxCell id="S0AGYew1W7Eg9Xt-4EEE-14" value="" style="edgeStyle=orthogonalEdgeStyle;rounded=0;orthogonalLoop=1;jettySize=auto;html=1;fillColor=none;" parent="1" source="S0AGYew1W7Eg9Xt-4EEE-11" target="S0AGYew1W7Eg9Xt-4EEE-13" edge="1">
          <mxGeometry relative="1" as="geometry" />
        </mxCell>
        <mxCell id="S0AGYew1W7Eg9Xt-4EEE-30" style="edgeStyle=orthogonalEdgeStyle;rounded=0;orthogonalLoop=1;jettySize=auto;html=1;entryX=0;entryY=0.5;entryDx=0;entryDy=0;fillColor=none;" parent="1" source="S0AGYew1W7Eg9Xt-4EEE-11" target="S0AGYew1W7Eg9Xt-4EEE-29" edge="1">
          <mxGeometry relative="1" as="geometry" />
        </mxCell>
        <mxCell id="S0AGYew1W7Eg9Xt-4EEE-11" value="is kolom[p]&amp;nbsp;&lt;div&gt;na&lt;/div&gt;" style="rhombus;whiteSpace=wrap;html=1;fillColor=none;" parent="1" vertex="1">
          <mxGeometry x="280" y="510" width="80" height="90" as="geometry" />
        </mxCell>
        <mxCell id="S0AGYew1W7Eg9Xt-4EEE-13" value="&lt;i&gt;fill with 0&lt;/i&gt;" style="rounded=0;whiteSpace=wrap;html=1;fillColor=none;" parent="1" vertex="1">
          <mxGeometry x="280" y="680" width="80" height="40" as="geometry" />
        </mxCell>
        <mxCell id="S0AGYew1W7Eg9Xt-4EEE-18" value="" style="edgeStyle=orthogonalEdgeStyle;rounded=0;orthogonalLoop=1;jettySize=auto;html=1;fillColor=none;" parent="1" source="S0AGYew1W7Eg9Xt-4EEE-15" target="S0AGYew1W7Eg9Xt-4EEE-17" edge="1">
          <mxGeometry relative="1" as="geometry" />
        </mxCell>
        <mxCell id="S0AGYew1W7Eg9Xt-4EEE-34" style="edgeStyle=orthogonalEdgeStyle;rounded=0;orthogonalLoop=1;jettySize=auto;html=1;entryX=0;entryY=0.5;entryDx=0;entryDy=0;fillColor=none;" parent="1" source="S0AGYew1W7Eg9Xt-4EEE-15" target="S0AGYew1W7Eg9Xt-4EEE-9" edge="1">
          <mxGeometry relative="1" as="geometry">
            <Array as="points">
              <mxPoint x="500" y="585" />
              <mxPoint x="500" y="750" />
              <mxPoint x="260" y="750" />
              <mxPoint x="260" y="430" />
            </Array>
          </mxGeometry>
        </mxCell>
        <mxCell id="S0AGYew1W7Eg9Xt-4EEE-15" value="p &amp;lt; jumlah kolom" style="rhombus;whiteSpace=wrap;html=1;fillColor=none;" parent="1" vertex="1">
          <mxGeometry x="410" y="540" width="80" height="90" as="geometry" />
        </mxCell>
        <mxCell id="S0AGYew1W7Eg9Xt-4EEE-20" value="" style="edgeStyle=orthogonalEdgeStyle;rounded=0;orthogonalLoop=1;jettySize=auto;html=1;fillColor=none;" parent="1" source="S0AGYew1W7Eg9Xt-4EEE-17" target="S0AGYew1W7Eg9Xt-4EEE-19" edge="1">
          <mxGeometry relative="1" as="geometry" />
        </mxCell>
        <mxCell id="S0AGYew1W7Eg9Xt-4EEE-17" value="i = i + 1" style="rounded=0;whiteSpace=wrap;html=1;fillColor=none;" parent="1" vertex="1">
          <mxGeometry x="410" y="470" width="80" height="40" as="geometry" />
        </mxCell>
        <mxCell id="S0AGYew1W7Eg9Xt-4EEE-22" value="" style="edgeStyle=orthogonalEdgeStyle;rounded=0;orthogonalLoop=1;jettySize=auto;html=1;fillColor=none;" parent="1" source="S0AGYew1W7Eg9Xt-4EEE-19" target="S0AGYew1W7Eg9Xt-4EEE-21" edge="1">
          <mxGeometry relative="1" as="geometry" />
        </mxCell>
        <mxCell id="S0AGYew1W7Eg9Xt-4EEE-37" style="edgeStyle=orthogonalEdgeStyle;rounded=0;orthogonalLoop=1;jettySize=auto;html=1;entryX=0;entryY=0.5;entryDx=0;entryDy=0;fillColor=none;" parent="1" source="S0AGYew1W7Eg9Xt-4EEE-19" target="S0AGYew1W7Eg9Xt-4EEE-7" edge="1">
          <mxGeometry relative="1" as="geometry">
            <Array as="points">
              <mxPoint x="520" y="395" />
              <mxPoint x="520" y="780" />
              <mxPoint x="240" y="780" />
              <mxPoint x="240" y="320" />
            </Array>
          </mxGeometry>
        </mxCell>
        <mxCell id="S0AGYew1W7Eg9Xt-4EEE-19" value="i &amp;lt; jumlah&amp;nbsp;&lt;div&gt;row&lt;/div&gt;" style="rhombus;whiteSpace=wrap;html=1;fillColor=none;" parent="1" vertex="1">
          <mxGeometry x="410" y="350" width="80" height="90" as="geometry" />
        </mxCell>
        <mxCell id="S0AGYew1W7Eg9Xt-4EEE-21" value="End" style="strokeWidth=1;html=1;shape=mxgraph.flowchart.terminator;whiteSpace=wrap;fontStyle=0;fillColor=none;" parent="1" vertex="1">
          <mxGeometry x="410" y="240" width="80" height="40" as="geometry" />
        </mxCell>
        <mxCell id="S0AGYew1W7Eg9Xt-4EEE-24" value="No" style="text;html=1;align=center;verticalAlign=middle;whiteSpace=wrap;rounded=0;fontStyle=2;fillColor=none;" parent="1" vertex="1">
          <mxGeometry x="340" y="290" width="60" height="30" as="geometry" />
        </mxCell>
        <mxCell id="S0AGYew1W7Eg9Xt-4EEE-25" value="Yes" style="text;html=1;align=center;verticalAlign=middle;whiteSpace=wrap;rounded=0;fontStyle=2;fillColor=none;" parent="1" vertex="1">
          <mxGeometry x="310" y="350" width="60" height="30" as="geometry" />
        </mxCell>
        <mxCell id="S0AGYew1W7Eg9Xt-4EEE-26" value="Yes" style="text;html=1;align=center;verticalAlign=middle;whiteSpace=wrap;rounded=0;fontStyle=2;fillColor=none;" parent="1" vertex="1">
          <mxGeometry x="270" y="470" width="60" height="30" as="geometry" />
        </mxCell>
        <mxCell id="S0AGYew1W7Eg9Xt-4EEE-28" value="No" style="text;html=1;align=center;verticalAlign=middle;whiteSpace=wrap;rounded=0;fontStyle=2;fillColor=none;" parent="1" vertex="1">
          <mxGeometry x="340" y="460" width="60" height="30" as="geometry" />
        </mxCell>
        <mxCell id="S0AGYew1W7Eg9Xt-4EEE-33" value="" style="edgeStyle=orthogonalEdgeStyle;rounded=0;orthogonalLoop=1;jettySize=auto;html=1;fillColor=none;" parent="1" source="S0AGYew1W7Eg9Xt-4EEE-29" target="S0AGYew1W7Eg9Xt-4EEE-15" edge="1">
          <mxGeometry relative="1" as="geometry" />
        </mxCell>
        <mxCell id="S0AGYew1W7Eg9Xt-4EEE-29" value="&lt;div&gt;p = p + 1&lt;/div&gt;" style="rounded=0;whiteSpace=wrap;html=1;fillColor=none;" parent="1" vertex="1">
          <mxGeometry x="410" y="680" width="80" height="40" as="geometry" />
        </mxCell>
        <mxCell id="S0AGYew1W7Eg9Xt-4EEE-31" value="No" style="text;html=1;align=center;verticalAlign=middle;whiteSpace=wrap;rounded=0;fontStyle=2;fillColor=none;" parent="1" vertex="1">
          <mxGeometry x="340" y="530" width="60" height="30" as="geometry" />
        </mxCell>
        <mxCell id="S0AGYew1W7Eg9Xt-4EEE-32" value="Yes" style="text;html=1;align=center;verticalAlign=middle;whiteSpace=wrap;rounded=0;fontStyle=2;fillColor=none;" parent="1" vertex="1">
          <mxGeometry x="270" y="600" width="60" height="30" as="geometry" />
        </mxCell>
        <mxCell id="S0AGYew1W7Eg9Xt-4EEE-35" value="Yes" style="text;html=1;align=center;verticalAlign=middle;whiteSpace=wrap;rounded=0;fontStyle=2;fillColor=none;" parent="1" vertex="1">
          <mxGeometry x="450" y="600" width="60" height="30" as="geometry" />
        </mxCell>
        <mxCell id="S0AGYew1W7Eg9Xt-4EEE-36" value="No" style="text;html=1;align=center;verticalAlign=middle;whiteSpace=wrap;rounded=0;fontStyle=2;fillColor=none;" parent="1" vertex="1">
          <mxGeometry x="410" y="520" width="60" height="30" as="geometry" />
        </mxCell>
        <mxCell id="S0AGYew1W7Eg9Xt-4EEE-38" value="Yes" style="text;html=1;align=center;verticalAlign=middle;whiteSpace=wrap;rounded=0;fontStyle=2;fillColor=none;" parent="1" vertex="1">
          <mxGeometry x="470" y="370" width="60" height="30" as="geometry" />
        </mxCell>
        <mxCell id="S0AGYew1W7Eg9Xt-4EEE-39" value="No" style="text;html=1;align=center;verticalAlign=middle;whiteSpace=wrap;rounded=0;fontStyle=2;fillColor=none;" parent="1" vertex="1">
          <mxGeometry x="410" y="305" width="60" height="30" as="geometry" />
        </mxCell>
      </root>
    </mxGraphModel>
  </diagram>
</mxfile>
